<?xml version="1.0" encoding="UTF-8" standalone="no"?>
<!-- Created with Inkscape (http://www.inkscape.org/) -->

<svg
   width="106.81139mm"
   height="175.07552mm"
   viewBox="0 0 106.81139 175.07552"
   version="1.1"
   id="svg1"
   xml:space="preserve"
   xmlns="http://www.w3.org/2000/svg"
   xmlns:svg="http://www.w3.org/2000/svg"><defs
     id="defs1" /><g
     id="layer1"
     transform="translate(-46.976631,-35.607792)"><g
       id="g1"><path
         style="fill:#3ca74a;fill-opacity:1"
         d="m 96.233231,187.70713 c -0.097,-0.097 -0.17683,-1.07928 -0.17738,-2.18281 l -9.9e-4,-2.00643 -0.51554,-0.84552 c -0.28355,-0.46503 -0.81512,-1.0418 -1.18126,-1.28171 l -0.6657,-0.43618 -2.72037,-0.40575 -2.72036,-0.40574 -0.33073,-0.41364 -0.33072,-0.41364 0.004,-2.66141 0.004,-2.66141 0.23126,-0.36512 0.23126,-0.36513 4.99021,0.44699 c 2.74461,0.24584 5.19856,0.50747 5.45322,0.58139 l 0.46303,0.13441 v 6.72904 6.72905 h -1.27882 c -0.70335,0 -1.3582,-0.0794 -1.45521,-0.17639 z m 5.115279,-6.43092 v -6.63496 l 0.59531,-0.21995 c 0.59935,-0.22145 4.26751,-0.65322 8.36229,-0.98431 l 2.21072,-0.17875 0.23262,0.36733 0.23262,0.36732 v 2.77813 c 0,1.52797 -0.0875,2.91487 -0.19438,3.082 l -0.19439,0.30387 -1.5875,0.1763 c -4.1525,0.46116 -5.64226,0.9831 -6.20148,2.17267 l -0.35137,0.74745 -0.16316,2.24896 -0.16316,2.24896 -1.38906,0.08 -1.38906,0.08 z M 82.644534,170.96993 78.889517,170.81789 75.10391,168.9049 c -5.898593,-2.98075 -16.18863,-9.65657 -15.624838,-10.13684 0.490132,-0.41753 14.440367,-1.93416 20.702771,-2.25074 l 3.571878,-0.18058 2.27039,2.87495 c 3.04226,3.85235 4.11494,5.33852 6.45838,8.94794 l 1.98357,3.05514 -4.03325,-0.0464 c -2.21829,-0.0255 -5.72302,-0.11481 -7.788277,-0.19844 z m 13.849537,-0.35047 c -0.20279,-0.32743 -1.05655,-1.78594 -1.89724,-3.24115 -3.68118,-6.372 -10.7405,-15.43678 -17.261064,-22.16468 -1.096135,-1.13098 -1.941222,-2.10809 -1.877972,-2.17134 0.06325,-0.0633 2.047622,0.0372 4.409715,0.22331 l 4.294711,0.3383 0.2976,0.2976 0.2976,0.2976 0.12532,2.06461 0.12532,2.0646 0.40602,0.46302 0.40603,0.46302 h 0.60483 c 0.83638,0 1.01289,-0.38077 1.16524,-2.51354 l 0.13229,-1.85208 3.04271,0.0711 c 1.67348,0.0391 4.20356,0.14127 5.62239,0.22698 l 2.57969,0.15582 v 12.93605 12.93604 h -1.05224 -1.05223 z m 4.854439,-12.3467 v -12.94201 l 1.91823,-0.14563 c 1.05502,-0.0801 3.6744,-0.20154 5.82083,-0.26987 l 3.9026,-0.12424 v 1.93469 1.93469 l 0.41269,0.3425 0.41268,0.3425 0.70043,-0.24633 0.70043,-0.24633 0.18343,-0.65908 c 0.10089,-0.3625 0.19712,-1.37346 0.21386,-2.24659 0.0167,-0.87312 0.13568,-1.75374 0.26434,-1.95692 l 0.23391,-0.36942 4.39224,-0.29859 c 2.41574,-0.16422 4.39224,-0.26549 4.39224,-0.22503 0,0.0405 -1.08702,1.23403 -2.4156,2.65238 -7.18731,7.67298 -13.52235,16.00323 -17.41863,22.90458 l -1.44569,2.56071 h -1.134 -1.13399 z m 6.19996,10.59002 c 2.44226,-4.02765 8.51754,-12.07712 9.35875,-12.39992 1.07597,-0.41289 22.66044,1.64809 23.77136,2.26979 l 0.39554,0.22136 -3.32266,2.36007 c -5.55551,3.94605 -12.69251,8.06168 -16.00923,9.23189 l -1.01969,0.35977 -7.32352,0.1931 -7.32352,0.1931 z m -52.747957,-14.01871 -2.360329,-2.40571 -1.445575,-2.18732 c -1.785491,-2.70164 -2.625229,-4.36146 -3.364925,-6.65106 l -0.572549,-1.77224 -0.04025,-1.74155 -0.04025,-1.74156 0.445275,-0.28728 0.445274,-0.28728 3.788059,0.33597 c 6.254844,0.55474 12.141975,1.67244 17.943266,3.40662 l 1.455209,0.43501 2.448854,2.46704 c 2.024348,2.03939 8.590533,9.64061 8.442289,9.77306 -0.02378,0.0212 -2.186352,0.17758 -4.805727,0.34741 -6.113261,0.39637 -15.760979,1.6744 -19.381855,2.56749 l -0.596438,0.14711 z m 84.927907,1.66012 c -4.0364,-0.84651 -10.17426,-1.59474 -16.15491,-1.96935 -2.69214,-0.16863 -4.93913,-0.34889 -4.99331,-0.40057 -0.14857,-0.14171 4.71191,-5.98423 7.42205,-8.92162 1.31251,-1.42258 2.76149,-2.7806 3.21997,-3.01783 3.16278,-1.63654 17.11566,-4.31755 22.46997,-4.31755 h 1.21227 l 0.44179,0.44179 0.44178,0.44179 -0.18199,1.74102 c -0.1001,0.95756 -0.49009,2.67985 -0.86664,3.82731 l -0.68464,2.08628 -1.22734,2.0421 c -2.07365,3.45023 -6.80035,8.77831 -7.72505,8.70791 -0.19062,-0.0145 -1.70889,-0.31209 -3.37395,-0.66128 z m -47.180729,-13.80412 -4.96436,-0.072 0.0696,-9.18842 0.0696,-9.18842 h 5.55625 5.55625 l 0.0695,9.31617 0.0695,9.31618 -0.73098,-0.0558 c -0.40203,-0.0307 -2.96494,-0.0882 -5.69533,-0.12775 z m 8.895539,-0.19434 c -0.0561,-0.14649 -0.0705,-4.31368 -0.0322,-9.26042 l 0.0697,-8.99408 h 5.68855 5.68853 l 0.0696,9.18423 0.0696,9.18422 -5.72592,0.0762 -5.72593,0.0762 z m -25.49472,-1.23051 c -2.270712,-0.49708 -6.592102,-1.56771 -7.922902,-1.96292 l -1.337514,-0.3972 v -1.54485 -1.54485 l 0.392813,-0.32601 0.392813,-0.326 2.186874,-0.12771 c 1.202781,-0.0702 3.540324,-0.007 5.194541,0.13951 l 3.007666,0.26721 0.284883,0.28488 0.284884,0.28488 0.01474,2.71349 0.01474,2.7135 -0.661458,0.0434 c -0.363802,0.0238 -1.197239,-0.0739 -1.852083,-0.21728 z m 45.95218,0.13271 c -0.26421,-0.26421 -0.21039,-5.18851 0.0614,-5.61769 l 0.23257,-0.36724 3.69422,-0.26917 3.69423,-0.26918 1.95614,0.23954 1.95613,0.23954 v 1.85208 1.85209 l -4.36562,1.08509 c -4.61936,1.14816 -6.93403,1.54998 -7.22907,1.25494 z m -60.107388,-3.81316 c -1.309687,-0.25083 -3.929062,-0.65866 -5.820833,-0.90628 -1.89177,-0.24762 -3.588411,-0.49443 -3.770312,-0.54846 l -0.330729,-0.0982 v -1.84149 -1.84149 l 0.442189,-0.44219 0.44219,-0.44219 5.312498,0.0993 5.312497,0.0993 0.595313,0.33333 0.595312,0.33332 v 2.7532 c 0,1.51426 -0.0893,2.79928 -0.198437,2.8556 -0.109141,0.0563 -1.27,-0.10283 -2.579688,-0.35367 z m 74.215618,-2.38252 v -2.82644 l 0.43707,-0.36312 0.43706,-0.36313 5.31762,-0.0752 5.31763,-0.0752 0.34558,0.23228 0.34557,0.23228 0.15203,1.47304 c 0.0836,0.81016 0.0788,1.76474 -0.0107,2.12127 l -0.1627,0.64823 -2.71616,0.31595 c -1.49389,0.17377 -4.23421,0.58381 -6.0896,0.9112 l -3.37344,0.59526 z M 94.055891,121.6576 c -0.0748,-0.19495 -0.10168,-1.5366 -0.0597,-2.98145 l 0.0763,-2.627 h 6.217709 6.2177 v 2.91041 2.91042 l -6.15798,0.071 -6.157989,0.071 z"
         id="path1" /><path
         d="m 100.07675,114.67361 -0.835544,-0.38393 -1.122118,-1.41207 c -1.3354,-1.68047 -2.24061,-3.62267 -2.91468,-6.25366 l -0.49477,-1.93119 -0.17269,-2.69904 -0.17268,-2.699038 0.32542,-2.51354 c 0.66797,-5.15933 2.27001,-9.81494 4.895635,-14.22703 6.871217,-11.54633 18.892407,-20.505645 31.515467,-23.488288 3.22806,-0.762742 8.80944,-1.436796 11.92752,-1.440465 l 2.16391,-0.0025 0.41578,0.415774 0.41577,0.415773 -2.2e-4,8.910789 -2.2e-4,8.910787 -0.2668,2.91041 c -0.58535,6.38548 -1.92246,11.4314 -4.35053,16.41787 l -1.42385,2.92412 -1.62972,2.197998 c -3.88802,5.24381 -9.23663,9.18436 -15.43207,11.36953 -2.91744,1.02899 -5.67521,1.73303 -8.91117,2.27496 l -2.51354,0.42094 -5.29167,0.13289 -5.29167,0.13289 z m -8.027972,-0.1997 c -5.81817,-0.59143 -11.899414,-2.23797 -15.569877,-4.21567 -3.407268,-1.83588 -4.868307,-2.92884 -7.738573,-5.78896 l -2.803243,-2.79334 -1.401263,-2.093888 c -2.740586,-4.0952 -4.555002,-8.65713 -5.691626,-14.31029 l -0.638366,-3.175 -0.275365,-3.70416 c -0.151451,-2.03729 -0.275849,-7.42068 -0.276441,-11.963086 l -0.0011,-8.258919 0.511773,-0.273893 0.511772,-0.273892 h 1.823525 c 4.625444,0 11.089617,1.016354 15.207867,2.391114 7.574825,2.52864 14.418197,6.822426 21.347737,13.394356 l 2.493285,2.36462 -1.068074,1.57443 c -2.736921,4.03447 -4.903181,8.98473 -5.912881,13.51196 l -0.58312,2.61455 -0.13285,3.44782 -0.13286,3.447808 0.31102,2.33719 c 0.49671,3.73261 2.24307,8.53158 4.02062,11.04868 0.27278,0.38627 0.49596,0.77322 0.49596,0.8599 0,0.20087 -1.63776,0.14941 -4.49792,-0.14133 z m 8.455602,-43.252488 c -0.648757,-0.66993 -2.350882,-2.172539 -3.782502,-3.339127 -6.56109,-5.346463 -12.15587,-8.24701 -19.754348,-10.24141 l -2.778125,-0.729185 -0.07081,-6.85434 -0.07081,-6.854339 0.452111,-0.330729 0.452111,-0.330729 h 26.822023 26.82203 l 0.51177,0.273892 0.51177,0.273892 v 6.721951 6.721951 l -0.23403,0.144639 c -0.12872,0.07955 -1.62902,0.504322 -3.334,0.943933 -3.54018,0.912796 -5.61421,1.689196 -8.99967,3.368968 -4.56307,2.264062 -9.98756,6.232761 -13.617,9.962543 -0.7954,0.81738 -1.51475,1.48615 -1.59856,1.48615 -0.0838,0 -0.68319,-0.54813 -1.33196,-1.21806 z M 68.103989,56.158125 c -1.455208,-0.185471 -3.21138,-0.34851 -3.902604,-0.362308 l -1.256771,-0.02509 v -2.501553 -2.501552 l 0.95221,-0.178636 c 0.523716,-0.09825 2.339419,-0.09648 4.034896,0.0039 l 3.082686,0.182568 0.330729,0.431524 0.330729,0.431523 v 2.462972 2.462972 l -0.463021,-0.03457 c -0.254661,-0.01901 -1.653646,-0.186316 -3.108854,-0.371787 z m 63.767251,0.146107 c -0.0929,-0.150295 -0.1021,-1.367279 -0.0205,-2.70441 l 0.1484,-2.431146 0.27855,-0.278661 0.27855,-0.278661 h 3.93335 c 2.16335,0 3.99263,0.05953 4.06507,0.132292 0.0725,0.07276 0.17177,1.202025 0.22072,2.509477 l 0.089,2.377187 -3.17499,0.313061 c -1.74625,0.172184 -3.73171,0.385301 -4.41214,0.473593 l -1.23713,0.160531 z M 81.116271,40.781276 C 80.8947,40.559705 80.884507,37.602321 81.102511,36.788907 l 0.159006,-0.59328 1.091527,-0.293918 1.091526,-0.293918 7.039628,0.09345 7.03963,0.09345 0.44752,0.37146 0.447521,0.371461 -0.0762,2.142081 -0.0762,2.142081 -8.48512,0.06975 c -4.66681,0.03836 -8.566106,-0.01125 -8.665102,-0.110243 z M 105.27794,38.741167 V 36.52094 l 0.43745,-0.363126 0.43746,-0.363126 h 7.78588 7.78589 l 0.38559,0.52723 0.38559,0.527231 -0.0761,1.986311 -0.0761,1.986311 -8.53281,0.06981 -8.53281,0.06981 z"
         style="fill:#ff4242;fill-opacity:1"
         id="path1-4" /><path
         d="m 101.79064,210.62307 -0.33073,-0.11576 v -10.01429 -10.01428 l 0.46302,-0.13109 c 0.25466,-0.0721 1.17739,-0.20197 2.05052,-0.28861 0.87312,-0.0866 4.80219,-0.50455 8.73125,-0.92867 3.92906,-0.42412 8.00963,-0.8504 9.06794,-0.94729 l 1.92419,-0.17615 0.39091,0.32443 0.39092,0.32443 v 9.36686 9.36686 l -0.65531,0.24914 c -0.64237,0.24423 -12.90821,2.0584 -17.86553,2.64239 -1.38244,0.16286 -2.81119,0.33248 -3.175,0.37694 -0.3638,0.0445 -0.81028,0.0288 -0.99218,-0.0349 z m -9.458858,-0.637 c -10.86776,-1.48702 -15.07242,-2.12796 -15.51551,-2.36509 l -0.49177,-0.26319 v -9.351 -9.351 l 0.36284,-0.30113 0.36284,-0.30113 2.8783,0.25763 c 6.53417,0.58486 18.6953,1.88202 18.91451,2.0175 l 0.23567,0.14565 v 10.03855 10.03855 l -1.52136,-0.0292 c -0.83674,-0.0161 -3.18822,-0.25733 -5.22552,-0.53609 z m -4.7625,-22.74959 c -2.91041,-0.27727 -5.44049,-0.55845 -5.62239,-0.62484 l -0.33073,-0.1207 v -1.84149 -1.84149 l 0.45459,-0.45459 0.45458,-0.45458 3.84489,0.16655 c 3.89794,0.16884 6.74908,0.5727 7.35063,1.0412 l 0.33073,0.25758 v 2.21656 2.21656 l -0.59532,-0.0283 c -0.32742,-0.0156 -2.97656,-0.25517 -5.88698,-0.53245 z m 18.917708,-1.50533 v -2.0661 l 0.33125,-0.45301 0.33126,-0.45302 1.45468,-0.25382 c 0.80008,-0.13961 3.30016,-0.32388 5.55573,-0.4095 l 4.10104,-0.15567 0.29087,0.21663 0.29087,0.21663 0.15256,1.86816 c 0.0839,1.0275 0.0651,2.00969 -0.0418,2.18267 l -0.19437,0.31449 -5.6559,0.52932 c -3.11075,0.29112 -5.87196,0.52931 -6.13604,0.52931 H 106.487 Z"
         style="fill:#e5ac87;fill-opacity:1"
         id="path1-2" /></g></g></svg>
