<?xml version="1.0" encoding="UTF-8" standalone="no"?>
<svg
   version="1.0"
   width="550.32324pt"
   height="763.70868pt"
   viewBox="0 0 550.32324 763.70868"
   preserveAspectRatio="xMidYMid"
   id="svg4"
   sodipodi:docname="logo_guitarra.svg"
   inkscape:version="1.4.2 (f4327f4, 2025-05-13)"
   xmlns:inkscape="http://www.inkscape.org/namespaces/inkscape"
   xmlns:sodipodi="http://sodipodi.sourceforge.net/DTD/sodipodi-0.dtd"
   xmlns="http://www.w3.org/2000/svg"
   xmlns:svg="http://www.w3.org/2000/svg">
  <defs
     id="defs4" />
  <sodipodi:namedview
     id="namedview4"
     pagecolor="#ffffff"
     bordercolor="#999999"
     borderopacity="1"
     inkscape:showpageshadow="2"
     inkscape:pageopacity="0"
     inkscape:pagecheckerboard="0"
     inkscape:deskcolor="#d1d1d1"
     inkscape:document-units="pt"
     inkscape:zoom="1.3293457"
     inkscape:cx="682.66667"
     inkscape:cy="682.66667"
     inkscape:window-width="3840"
     inkscape:window-height="2054"
     inkscape:window-x="2869"
     inkscape:window-y="-11"
     inkscape:window-maximized="1"
     inkscape:current-layer="g4">
    <inkscape:page
       x="0"
       y="0"
       width="550.32324"
       height="763.70868"
       id="page2"
       margin="0"
       bleed="0" />
  </sodipodi:namedview>
  <g
     transform="matrix(0.1,0,0,-0.1,-233.59476,891.89364)"
     fill="#003932"
     stroke="none"
     id="g4">
    <g
       id="g5"
       style="fill:#cefc73;fill-opacity:1"
       inkscape:export-filename="logo_guitarra.svg"
       inkscape:export-xdpi="96"
       inkscape:export-ydpi="96">
      <path
         d="m 7368,8907 c -20,-8 -50,-23 -66,-33 -16,-10 -253,-239 -525,-509 -436,-431 -496,-494 -502,-527 -6,-32 -1,-49 40,-124 26,-48 45,-95 42,-104 -2,-9 -84,-154 -182,-321 -98,-167 -226,-387 -285,-489 -59,-102 -146,-252 -195,-335 -212,-363 -268,-459 -345,-595 -45,-80 -130,-225 -187,-322 l -105,-178 h -62 c -245,0 -449,223 -449,490 0,133 46,227 152,311 102,82 118,172 43,253 -63,67 -171,83 -314,47 -213,-55 -407,-221 -521,-446 -34,-68 -93,-261 -111,-365 -9,-47 -23,-175 -31,-285 -18,-234 -28,-299 -56,-392 -66,-213 -188,-356 -489,-571 -348,-248 -479,-357 -589,-488 -132,-158 -218,-321 -268,-511 -23,-88 -26,-117 -27,-288 -1,-215 12,-298 69,-446 158,-409 490,-719 1190,-1111 366,-204 577,-275 856,-285 175,-6 303,11 455,62 194,65 331,150 479,299 283,285 407,679 355,1126 -35,295 -31,441 14,564 51,141 110,211 295,348 255,190 371,331 443,540 31,88 33,100 33,238 0,136 -2,149 -28,211 -49,117 -110,171 -192,171 -79,0 -124,-37 -171,-140 -40,-87 -113,-163 -194,-201 -48,-22 -68,-26 -155,-26 -80,0 -109,5 -146,22 -86,39 -164,125 -189,209 l -12,39 144,255 c 282,498 412,727 483,850 40,69 115,202 167,295 53,94 169,298 258,455 89,157 215,380 280,495 65,116 133,228 153,250 l 35,39 59,-12 c 126,-26 201,-7 235,59 12,24 30,133 58,359 61,494 55,462 86,488 23,20 34,23 73,18 150,-19 155,-19 204,4 62,29 131,107 153,172 23,69 15,185 -17,253 -30,64 -100,134 -164,165 -62,29 -217,39 -277,17 z M 4700,5201 c 47,-32 96,-56 139,-67 36,-10 67,-18 69,-20 6,-4 -59,-126 -110,-207 -97,-155 -84,-184 152,-317 52,-30 122,-71 154,-92 61,-39 97,-46 139,-27 22,10 30,5 95,-59 122,-118 278,-182 447,-182 90,0 208,26 277,61 57,29 145,97 191,148 l 37,41 v -48 c 0,-103 -61,-239 -159,-357 -39,-48 -111,-111 -221,-195 -156,-119 -247,-208 -304,-298 -129,-204 -158,-391 -116,-752 38,-329 18,-528 -70,-707 -17,-34 -44,-72 -61,-84 -41,-29 -98,-35 -137,-15 -43,22 -70,61 -140,202 -156,312 -355,532 -647,714 -215,134 -570,329 -577,317 -4,-7 -8,-22 -8,-34 0,-24 -50,-70 -86,-79 -73,-18 -164,46 -214,150 -77,163 -58,368 51,536 58,91 124,157 303,303 88,72 189,161 225,197 203,200 319,441 341,705 10,127 20,161 58,192 45,37 88,31 172,-26 z m -99,-2828 c 65,-33 192,-156 243,-236 119,-186 141,-384 51,-443 -37,-24 -109,-22 -168,4 -89,40 -226,191 -292,322 -64,127 -84,254 -50,320 33,65 124,78 216,33 z"
         id="path1"
         style="fill:#cefc73;fill-opacity:1" />
      <path
         d="m 4525,4405 c -49,-17 -102,-76 -111,-122 -18,-96 20,-173 107,-221 28,-15 122,-69 211,-121 137,-80 166,-94 203,-93 97,1 168,76 168,178 0,64 -24,108 -79,148 -66,48 -357,217 -398,232 -47,17 -50,17 -101,-1 z"
         id="path2"
         style="fill:#cefc73;fill-opacity:1" />
      <path
         d="m 4202,3797 c -39,-15 -90,-61 -103,-94 -13,-36 -11,-119 5,-156 7,-18 26,-44 42,-58 40,-37 392,-235 431,-244 96,-20 203,72 203,175 0,43 -29,107 -61,137 -30,28 -374,226 -418,241 -41,14 -56,14 -99,-1 z"
         id="path3"
         style="fill:#cefc73;fill-opacity:1" />
      <path
         d="m 4937,3196 c -117,-42 -152,-178 -75,-289 29,-41 88,-67 152,-67 46,0 61,5 98,33 53,40 78,88 78,149 0,83 -32,136 -105,169 -47,22 -95,23 -148,5 z"
         id="path4"
         style="fill:#cefc73;fill-opacity:1" />
    </g>
  </g>
</svg>
